<?xml version="1.0" encoding="UTF-8" standalone="no"?>
<!DOCTYPE svg PUBLIC "-//W3C//DTD SVG 1.1//EN" "http://www.w3.org/Graphics/SVG/1.1/DTD/svg11.dtd">
<svg width="100%" height="100%" viewBox="0 0 122 150" version="1.1" xmlns="http://www.w3.org/2000/svg" xmlns:xlink="http://www.w3.org/1999/xlink" xml:space="preserve" xmlns:serif="http://www.serif.com/" style="fill-rule:evenodd;clip-rule:evenodd;stroke-linejoin:round;stroke-miterlimit:2;">
    <g transform="matrix(1,0,0,1,-740.714,-328.73)">
        <g transform="matrix(0.19138,-0.0614367,0.0614367,0.19138,683.427,327.691)">
            <g transform="matrix(4.73705,1.52069,-1.52069,4.73705,-2739.11,-2591.57)">
                <path d="M745.299,379.151C744.567,372.904 742.764,337.905 792.866,329.693C828.366,323.873 819.84,346.344 819.84,346.344C819.84,346.344 836.938,338.147 845.454,346.329C850.744,351.412 853.198,357.481 852.349,364.18L852.366,393.877C862.192,396.361 862,404.284 861.867,409.729C861.849,410.492 861.829,411.276 861.829,412.077C861.833,419.761 857.754,426.539 851.625,429.503C845.815,452.002 828.314,471.048 814.137,476.793C813.709,476.966 813.278,477.121 812.846,477.26C808.908,478.524 804.865,478.434 802.348,478.378C801.964,478.37 801.62,478.362 801.327,478.362C801.032,478.363 800.688,478.37 800.303,478.379C797.511,478.444 792.838,478.553 788.514,476.806C774.324,471.076 756.797,452.038 750.968,429.536C744.862,426.564 740.794,419.8 740.79,412.144C740.789,411.343 740.768,410.559 740.749,409.797C740.639,405.486 740.484,399.621 745.309,396.126L745.299,379.151ZM808.64,466.508L811.417,466.507C814.42,466.506 816.859,464.062 816.857,461.06L816.85,447.018C816.849,445.575 816.279,444.21 815.244,443.177C814.21,442.144 812.846,441.576 811.403,441.577L791.249,441.588C790.671,441.588 790.115,441.679 789.591,441.847C787.399,442.551 785.806,444.611 785.809,447.034L785.816,461.077C785.817,462.52 786.387,463.884 787.421,464.918C788.456,465.95 789.819,466.518 791.263,466.518L794.04,466.516C794.254,462.673 797.438,459.622 801.336,459.619C805.233,459.617 808.421,462.665 808.64,466.508ZM847.362,402.39L847.368,413.416C847.371,417.134 844.929,420.294 841.566,421.374C840.763,421.631 839.909,421.771 839.023,421.771L817.647,421.783C811.947,421.786 809.558,416.613 808.659,414.666L808.568,414.468L805.239,403.087L797.366,403.092L793.962,414.674C793.214,416.298 791.433,420.165 787.559,421.409C786.786,421.657 785.93,421.8 784.983,421.801L763.607,421.813C759.002,421.815 755.254,418.072 755.252,413.468L755.246,402.441L755.073,402.456C753.817,402.562 752.766,402.752 751.972,403.006C751.148,403.271 750.6,403.606 750.386,403.993C749.842,404.977 749.901,407.307 749.958,409.562C749.98,410.399 750.002,411.261 750.002,412.139C750.004,416.679 752.579,420.691 756.124,421.68L758.794,422.425L759.387,425.133C762.061,437.372 768.909,448.734 776.601,456.909L776.596,447.04C776.591,438.959 783.164,432.38 791.244,432.376L811.398,432.365C815.301,432.362 818.98,433.888 821.754,436.66C824.53,439.432 826.06,443.109 826.062,447.012L826.068,456.838C833.733,448.658 840.547,437.312 843.205,425.098L843.798,422.378L846.481,421.637C850.03,420.652 852.619,416.637 852.617,412.081C852.616,411.203 852.637,410.342 852.657,409.505C852.712,407.249 852.769,404.916 852.222,403.935C851.797,403.172 850.077,402.613 847.501,402.401L847.362,402.39ZM808.867,453.887C806.499,454.647 804.032,455.081 801.489,455.178C798.28,455.302 792.753,454.43 789.057,452.757C788.251,452.392 787.636,451.736 787.323,450.907C787.011,450.079 787.039,449.179 787.404,448.372C788.158,446.709 790.125,445.968 791.788,446.72C794.675,448.026 799.204,448.635 801.233,448.557C804.526,448.429 807.645,447.568 810.506,445.997C812.104,445.122 814.125,445.705 815.005,447.307C815.884,448.909 815.297,450.927 813.696,451.806C812.14,452.66 810.528,453.354 808.867,453.887ZM790.179,448.977C789.971,449.044 789.79,449.195 789.693,449.409C789.605,449.603 789.598,449.82 789.674,450.02C789.749,450.22 789.898,450.379 790.093,450.468C793.407,451.967 798.538,452.778 801.392,452.667C805.327,452.516 809.058,451.484 812.487,449.604C812.873,449.392 813.015,448.904 812.802,448.516C812.59,448.13 812.102,447.991 811.716,448.2C808.51,449.961 805.015,450.924 801.33,451.067C799.089,451.154 794.179,450.559 790.754,449.009C790.565,448.924 790.362,448.918 790.179,448.977ZM803.951,429.555C803.01,429.858 802.028,430.01 801.019,430.011C799.915,430.011 798.033,429.658 796.718,429.002C795.89,428.589 795.554,427.583 795.968,426.755C796.381,425.927 797.387,425.593 798.214,426.005C799.03,426.412 800.396,426.662 801.016,426.661C802.002,426.661 802.944,426.439 803.818,426.001C804.641,425.588 805.651,425.922 806.066,426.751C806.479,427.578 806.144,428.584 805.316,428.998C804.872,429.22 804.416,429.406 803.951,429.555ZM762.837,398.719C761.834,399.04 761.107,399.982 761.108,401.089L761.114,413.465C761.116,414.836 762.232,415.951 763.604,415.951L784.979,415.939C785.947,415.938 787.017,415.663 788.548,412.413L791.951,400.732C791.784,399.521 790.741,398.586 789.485,398.586L763.594,398.6C763.33,398.6 763.075,398.642 762.837,398.719ZM817.644,415.921L839.02,415.909C840.393,415.908 841.506,414.791 841.506,413.419L841.499,401.045C841.498,399.673 840.381,398.557 839.009,398.558L813.119,398.572C811.863,398.574 810.821,399.51 810.655,400.722L814.071,412.399C815.606,415.645 816.678,415.921 817.644,415.921ZM782.21,412.185C781.696,412.35 781.149,412.439 780.58,412.44C779.151,412.44 777.806,411.884 776.795,410.874C775.784,409.863 775.226,408.52 775.225,407.09C775.224,405.66 775.781,404.316 776.791,403.304C777.802,402.293 779.146,401.735 780.575,401.734C782.005,401.733 783.349,402.29 784.36,403.3C785.373,404.31 785.93,405.654 785.931,407.084C785.932,409.467 784.367,411.492 782.21,412.185ZM822.794,411.888C822.28,412.053 821.732,412.142 821.164,412.143C819.735,412.143 818.39,411.587 817.379,410.577C816.367,409.566 815.81,408.223 815.809,406.793C815.808,405.363 816.364,404.019 817.375,403.007C818.385,401.996 819.73,401.438 821.159,401.437C822.589,401.436 823.933,401.993 824.944,403.003C825.956,404.014 826.514,405.357 826.514,406.787C826.516,409.17 824.951,411.195 822.794,411.888ZM779.449,403.585C778.899,403.761 778.396,404.067 777.976,404.488C777.282,405.183 776.9,406.107 776.9,407.089C776.901,408.072 777.283,408.995 777.979,409.689C778.674,410.383 781.558,403.408 780.576,403.409C780.187,403.409 779.808,403.469 779.449,403.585ZM820.033,403.288C819.483,403.464 818.98,403.77 818.56,404.191C817.865,404.886 817.484,405.81 817.484,406.792C817.485,407.775 817.867,408.698 818.562,409.392C819.258,410.086 822.142,403.111 821.16,403.112C820.771,403.112 820.392,403.172 820.033,403.288ZM834.766,384.558C834.441,384.558 834.13,384.43 833.9,384.2C833.67,383.971 833.541,383.66 833.541,383.335C833.541,383.334 833.541,383.333 833.541,383.332C833.541,382.656 834.088,382.107 834.764,382.107L842.292,382.103C842.483,382.103 842.652,382.005 842.751,381.857C842.81,381.769 842.845,381.663 842.845,381.549L842.845,381.295C842.845,380.989 842.596,380.742 842.291,380.742L835.068,380.746C834.663,380.747 834.274,380.586 833.987,380.299C833.7,380.013 833.539,379.624 833.539,379.219L833.539,379.19C827.417,375.037 820.889,367.552 820.823,360.783C820.815,360.031 820.79,359.336 820.749,358.693C818.163,357.238 815.293,356.065 812.107,355.25C811.902,355.493 811.786,355.645 811.786,355.645C811.786,355.645 793.882,377.007 764.544,379.126C764.305,379.678 764.076,380.231 763.855,380.785L754.053,380.791L754.026,380.792L754.002,380.793C753.72,380.819 753.5,381.057 753.5,381.345L753.5,381.599C753.5,381.729 753.545,381.848 753.619,381.942L753.619,381.942C753.632,381.958 753.646,381.974 753.66,381.988L753.665,381.994C753.673,382.001 753.68,382.008 753.688,382.014L753.706,382.029L753.717,382.039L753.737,382.053L753.755,382.065L753.776,382.078L753.795,382.089L753.817,382.1L753.838,382.109L753.86,382.118L753.882,382.125L753.896,382.129L753.92,382.136L753.942,382.141L753.967,382.146L753.99,382.149L754.015,382.151L754.038,382.152L754.054,382.152L763.372,382.147C763.697,382.147 764.009,382.276 764.239,382.505C764.469,382.735 764.599,383.047 764.599,383.372C764.599,383.373 764.599,383.373 764.599,383.373C764.599,383.698 764.47,384.009 764.241,384.239C764.011,384.469 763.7,384.598 763.376,384.598L755.731,384.602C755.425,384.602 755.177,384.85 755.177,385.155L755.177,385.41C755.178,385.716 755.425,385.963 755.731,385.963C755.731,385.963 760.607,385.96 763.128,385.959C763.519,385.958 763.893,386.113 764.169,386.389C764.446,386.665 764.601,387.04 764.601,387.43C764.601,387.431 764.601,387.433 764.601,387.434C764.601,387.824 764.446,388.199 764.171,388.475C763.895,388.751 763.52,388.906 763.13,388.907L758.245,388.909C758.126,388.91 758.015,388.947 757.925,389.011C757.784,389.112 757.692,389.277 757.692,389.463L757.692,389.718C757.692,390.024 757.94,390.27 758.246,390.271L762.081,390.269C762.749,390.268 763.391,390.534 763.864,391.006C764.325,391.467 764.59,392.087 764.604,392.737L789.481,392.724C791.642,392.722 793.615,393.546 795.1,394.897L807.498,394.89C808.982,393.537 810.953,392.71 813.115,392.71L833.546,392.698L833.545,391.757C833.545,390.913 834.229,390.228 835.073,390.228C836.4,390.227 838.109,390.226 838.109,390.226C838.414,390.226 838.662,389.978 838.662,389.672L838.662,389.419C838.662,389.112 838.413,388.865 838.108,388.865C838.108,388.865 836.352,388.866 835.018,388.867C834.627,388.867 834.252,388.712 833.975,388.436C833.699,388.16 833.543,387.785 833.543,387.394C833.543,387.394 833.543,387.394 833.543,387.393C833.543,386.579 834.202,385.919 835.016,385.919L840.619,385.915C840.925,385.915 841.172,385.668 841.172,385.361L841.171,385.107C841.172,384.802 840.924,384.555 840.618,384.555L834.766,384.558Z" style="fill:rgb(26,34,46);fill-rule:nonzero;"/>
            </g>
        </g>
    </g>
</svg>
